<svg width="32" height="32" viewBox="0 0 32 32" fill="none" xmlns="http://www.w3.org/2000/svg">
<path d="M16.0235 22.7636C16.3991 22.7636 16.8216 22.7636 17.2441 22.6697L19.6385 24.5477C18.4648 24.8294 17.2441 25.0172 16.0235 25.0172C10.2488 25.0172 5.1784 21.6838 2.64319 16.7073C2.5493 16.5195 2.50235 16.2848 2.50235 16.0031C2.50235 15.7683 2.5493 15.5336 2.64319 15.3458C3.11268 14.4068 3.723 13.5618 4.38028 12.7167L9.30986 16.5195C9.5446 20.0406 12.4554 22.7636 16.0235 22.7636ZM30.7183 25.5336C30.9061 25.6744 31 25.8622 31 26.097C31 26.2848 30.9531 26.4256 30.8592 26.5665L29.9671 27.7402C29.8263 27.928 29.5916 28.0219 29.3568 28.0219C29.169 28.0219 29.0282 27.9749 28.8873 27.881L1.28169 6.51951C1.0939 6.37867 1 6.19087 1 5.95613C1 5.76834 1.04695 5.62749 1.14085 5.48665L2.07981 4.31294C2.17371 4.12515 2.40845 4.03125 2.64319 4.03125C2.83099 4.03125 2.97183 4.0782 3.11268 4.1721L9.07512 8.77303C11.1408 7.64627 13.4883 7.03594 16.0235 6.989C21.7512 6.989 26.8216 10.3693 29.3568 15.3458C29.4507 15.5336 29.4977 15.7683 29.4977 16.05C29.4977 16.2848 29.4507 16.5195 29.3568 16.7073C28.4178 18.5383 27.1033 20.1815 25.554 21.496L30.7183 25.5336ZM22.1268 18.8669C22.5023 17.9749 22.784 17.0359 22.784 16.0031C22.784 12.2942 19.7324 9.24252 16.0235 9.24252C14.3803 9.28947 12.8779 9.85285 11.7042 10.8388L15.1784 13.4679C15.2254 13.327 15.2254 13.1862 15.2723 12.9984C15.2254 12.5289 15.0845 12.0594 14.8028 11.6838C15.2254 11.5899 15.6479 11.496 16.0704 11.496C18.5117 11.496 20.5305 13.5148 20.5305 15.9561C20.5305 16.0031 20.5305 16.0031 20.5305 16.0031C20.4836 16.5195 20.4366 16.989 20.2488 17.4115L22.1268 18.8669Z" fill="#B07963"/>
</svg>
