<svg width="32" height="32" viewBox="0 0 32 32" fill="none" xmlns="http://www.w3.org/2000/svg">
<path d="M30.8435 15.287C30.9478 15.4957 31 15.7565 31 16.0696C31 16.3304 30.9478 16.5913 30.8435 16.8C28.0261 22.3304 22.3913 26.0348 16.0261 26.0348C9.6087 26.0348 3.97391 22.3304 1.15652 16.8C1.05217 16.5913 1 16.3304 1 16.0174C1 15.7565 1.05217 15.4957 1.15652 15.287C3.97391 9.75652 9.6087 6 16.0261 6C22.3913 6 28.0261 9.75652 30.8435 15.287ZM16.0261 23.5304V23.5826C20.1478 23.5826 23.5391 20.1913 23.5391 16.0696V16.0174C23.5391 11.8957 20.1478 8.50435 16.0261 8.50435C11.8522 8.50435 8.51304 11.8957 8.51304 16.0174C8.51304 20.1913 11.8522 23.5304 16.0261 23.5304ZM16.0261 11.0087V11.0609C18.7913 11.0609 21.0348 13.2522 21.0348 16.0174C21.0348 18.7826 18.7913 21.0261 16.0261 21.0261C13.2609 21.0261 11.0174 18.7826 11.0174 16.0174C11.0174 15.6 11.0696 15.1304 11.1739 14.713C11.5913 15.0261 12.113 15.1826 12.687 15.1826C14.0435 15.1826 15.1391 14.087 15.1391 12.7304C15.1391 12.1565 14.9826 11.6348 14.6696 11.2174C15.087 11.113 15.5565 11.0609 16.0261 11.0087Z" fill="#B07963"/>
</svg>
